HIERARCHY
ROOT Hips
{
	OFFSET 0.000000 0.000000 0.000000
	CHANNELS 6 Xposition Yposition Zposition Yrotation Xrotation Zrotation
	JOINT Chest
	{
		OFFSET 0.000000 -0.009281 11.569106
		CHANNELS 3 Yrotation Xrotation Zrotation
		JOINT Chest2
		{
			OFFSET -0.000000 0.016865 9.269641
			CHANNELS 3 Yrotation Xrotation Zrotation
			JOINT Chest3
			{
				OFFSET -0.000000 0.000001 8.374491
				CHANNELS 3 Yrotation Xrotation Zrotation
				JOINT Chest4
				{
					OFFSET -0.000000 0.000001 8.374493
					CHANNELS 3 Yrotation Xrotation Zrotation
					JOINT Neck
					{
						OFFSET -0.000000 0.000002 12.152554
						CHANNELS 3 Yrotation Xrotation Zrotation
						JOINT Head
						{
							OFFSET -0.000000 0.040101 7.802319
							CHANNELS 3 Yrotation Xrotation Zrotation
							End Site
							{
								OFFSET -0.000000 0.020947 14.853096
							}
						}
					}
					JOINT RightCollar
					{
						OFFSET 2.894404 0.000001 6.791374
						CHANNELS 3 Yrotation Xrotation Zrotation
						JOINT RightShoulder
						{
							OFFSET 13.574684 0.000001 0.000000
							CHANNELS 3 Yrotation Xrotation Zrotation
							JOINT RightElbow
							{
								OFFSET 23.923903 0.000002 0.000000
								CHANNELS 3 Yrotation Xrotation Zrotation
								JOINT RightWrist
								{
									OFFSET 19.846718 0.012767 0.000000
									CHANNELS 3 Yrotation Xrotation Zrotation
									End Site
									{
										OFFSET 14.973145 0.000001 0.000000
									}
								}
							}
						}
					}
					JOINT LeftCollar
					{
						OFFSET -2.894404 0.000001 6.791374
						CHANNELS 3 Yrotation Xrotation Zrotation
						JOINT LeftShoulder
						{
							OFFSET -13.574684 -0.000001 0.000000
							CHANNELS 3 Yrotation Xrotation Zrotation
							JOINT LeftElbow
							{
								OFFSET -23.923903 -0.000002 0.000000
								CHANNELS 3 Yrotation Xrotation Zrotation
								JOINT LeftWrist
								{
									OFFSET -19.846718 0.012763 0.000000
									CHANNELS 3 Yrotation Xrotation Zrotation
									End Site
									{
										OFFSET -14.973145 -0.000001 0.000000
									}
								}
							}
						}
					}
				}
			}
		}
	}
	JOINT RightHip
	{
		OFFSET 9.469263 0.004643 0.045487
		CHANNELS 3 Yrotation Xrotation Zrotation
		JOINT RightKnee
		{
			OFFSET 0.000000 0.002661 -40.478676
			CHANNELS 3 Yrotation Xrotation Zrotation
			JOINT RightAnkle
			{
				OFFSET 0.000000 0.049106 -35.224068
				CHANNELS 3 Yrotation Xrotation Zrotation
				JOINT RightToe
				{
					OFFSET -0.000001 12.539529 -6.151390
					CHANNELS 3 Yrotation Xrotation Zrotation
					End Site
					{
						OFFSET -0.000001 5.044994 -1.291870
					}
				}
			}
		}
	}
	JOINT LeftHip
	{
		OFFSET -9.469263 0.004641 0.045487
		CHANNELS 3 Yrotation Xrotation Zrotation
		JOINT LeftKnee
		{
			OFFSET 0.000000 0.002661 -40.478676
			CHANNELS 3 Yrotation Xrotation Zrotation
			JOINT LeftAnkle
			{
				OFFSET 0.000000 0.049106 -35.224068
				CHANNELS 3 Yrotation Xrotation Zrotation
				JOINT LeftToe
				{
					OFFSET -0.000001 12.539529 -6.151390
					CHANNELS 3 Yrotation Xrotation Zrotation
					End Site
					{
						OFFSET -0.000001 5.044994 -1.291870
					}
				}
			}
		}
	}
}
MOTION
Frames: 15
Frame Time: 0.016667
19.904165 6.307261 83.075211 -5.971587 -2.099417 -111.537952 -2.089719 -2.761752 6.580460 -0.889959 -1.256754 2.890738 -0.889961 -1.256754 2.890738 -0.661516 -0.946803 2.166140 4.706904 -11.335039 -20.911533 0.257723 13.665512 -37.989287 -0.347837 4.592589 -12.110316 59.847340 33.516893 72.434313 54.535051 14.715550 73.615601 31.050644 12.986159 -5.468091 -3.924999 -9.218993 -26.620013 -47.831996 -0.494806 -49.744869 -18.349155 -41.853091 -63.712449 -31.546455 -31.379730 30.680851 0.524844 -10.924900 -7.065155 1.454415 -0.719532 -2.789226 -0.652610 5.567606 1.399882 -0.216390 -0.078391 -0.017790 1.418251 -9.375471 -0.827383 0.133655 -0.198580 -4.504404 -3.132332 3.008223 1.621386 0.081369 0.044212 0.019756 
19.878025 6.268021 83.077934 -5.939270 -2.059662 -111.518233 -2.142015 -2.747132 6.595386 -0.912951 -1.250935 2.897264 -0.912950 -1.250935 2.897264 -0.678774 -0.942557 2.170999 4.713831 -11.354448 -21.103422 0.205629 13.594698 -38.346294 -0.372388 4.526897 -12.038986 61.010740 33.818213 73.607009 55.247532 16.651929 73.447435 31.126671 13.675426 -4.775952 -3.863657 -9.385927 -26.670622 -48.128573 -0.339532 -50.231520 -19.120107 -41.239507 -64.742270 -31.729091 -30.153745 30.103294 0.518497 -10.893824 -7.128983 1.492241 -0.686321 -2.748099 -0.655044 5.560296 1.400509 -0.214285 -0.071297 -0.019208 1.432543 -9.318206 -0.852877 0.142062 -0.201025 -4.476972 -3.191286 2.978676 1.576141 0.076812 0.046272 0.020202 
19.852882 6.229364 83.080795 -5.916637 -2.029135 -111.492333 -2.192048 -2.738552 6.607852 -0.934935 -1.248216 2.901568 -0.934935 -1.248216 2.901567 -0.695265 -0.940629 2.174186 4.739892 -11.395943 -21.280148 0.201523 13.492140 -38.661688 -0.395269 4.513471 -11.956180 62.108980 34.112417 74.684430 55.736522 18.523413 73.248615 31.131084 14.710727 -3.772198 -3.802894 -9.546087 -26.709064 -48.492478 -0.206577 -50.661907 -19.773212 -40.593522 -65.790062 -31.822002 -29.220441 29.255527 0.519642 -10.869043 -7.188464 1.522705 -0.668058 -2.694591 -0.653135 5.557903 1.377150 -0.213318 -0.061387 -0.020155 1.445545 -9.272228 -0.857983 0.154848 -0.203419 -4.473149 -3.244964 2.950922 1.550917 0.071265 0.046100 0.021572 
19.826933 6.191327 83.081902 -5.894858 -2.010994 -111.471201 -2.212607 -2.735212 6.608164 -0.944039 -1.247377 2.900433 -0.944039 -1.247377 2.900435 -0.702100 -0.940041 2.173317 4.760004 -11.449332 -21.430332 0.199857 13.371601 -38.926512 -0.459073 4.406514 -11.833175 63.229568 34.427849 75.832162 56.012148 20.399897 73.032610 31.151571 15.783391 -2.586977 -3.794325 -9.711096 -26.725355 -48.911470 -0.150022 -51.072207 -20.164843 -39.838748 -66.918280 -31.955556 -28.281245 28.315398 0.537878 -10.837972 -7.201081 1.540089 -0.666365 -2.686452 -0.650195 5.559576 1.350064 -0.208556 -0.050508 -0.019173 1.475915 -9.233576 -0.847598 0.157085 -0.205240 -4.481765 -3.289034 2.933606 1.525500 0.062519 0.038381 0.022019 
19.797041 6.150257 83.080917 -5.881630 -2.002765 -111.457417 -2.238691 -2.773096 6.615994 -0.955627 -1.264675 2.902331 -0.955627 -1.264675 2.902333 -0.710704 -0.953073 2.174688 4.798590 -11.483032 -21.564760 0.232756 13.294939 -39.157987 -0.499763 4.313054 -11.716614 64.332794 34.711015 76.955851 56.317372 22.240006 72.954528 31.163643 16.592416 -1.554100 -3.767315 -9.807230 -26.758617 -49.379447 -0.173918 -51.457300 -20.418671 -38.952309 -68.024354 -32.120351 -27.104393 27.417824 0.561438 -10.809144 -7.181006 1.556981 -0.680784 -2.709951 -0.653177 5.569335 1.354883 -0.199866 -0.042071 -0.017153 1.510095 -9.202071 -0.842574 0.160542 -0.215380 -4.488326 -3.323611 2.928417 1.519887 0.048573 0.025453 0.022552 
19.767412 6.113572 83.079269 -5.881392 -2.003135 -111.448142 -2.287818 -2.803646 6.612275 -0.976542 -1.278824 2.899588 -0.976542 -1.278825 2.899588 -0.726328 -0.963779 2.172562 4.857592 -11.536715 -21.675102 0.318352 13.192950 -39.331040 -0.475124 4.256823 -11.568989 65.463292 34.964879 78.017481 56.624136 23.956711 72.873576 31.254771 17.171070 -0.720759 -3.678446 -9.940543 -26.742614 -49.860562 -0.277765 -51.813515 -20.771881 -37.874007 -68.937584 -32.203362 -25.787903 26.371862 0.583361 -10.784426 -7.167536 1.578501 -0.713015 -2.705431 -0.660379 5.583596 1.326417 -0.192511 -0.034087 -0.017536 1.543454 -9.178372 -0.844857 0.167419 -0.243259 -4.499408 -3.349442 2.937423 1.525449 0.031590 0.012022 0.022583 
19.738060 6.080210 83.076904 -5.891249 -2.006704 -111.443129 -2.337344 -2.814303 6.633251 -0.998498 -1.284278 2.908109 -0.998498 -1.284278 2.908107 -0.742750 -0.967989 2.178895 4.928284 -11.617494 -21.795701 0.430060 13.043489 -39.512883 -0.420080 4.104964 -11.459271 66.728134 35.228528 79.154489 56.894721 25.581611 72.707616 31.484737 17.710831 -0.046899 -3.587405 -10.122628 -26.755702 -50.368527 -0.504251 -52.073594 -21.290922 -36.612051 -69.574370 -32.108323 -24.350345 24.971006 0.594568 -10.765570 -7.170496 1.607860 -0.757425 -2.668655 -0.671569 5.603768 1.294794 -0.183874 -0.028209 -0.018021 1.571542 -9.156459 -0.867146 0.175044 -0.290751 -4.490290 -3.363778 2.959110 1.514800 0.012039 -0.001008 0.022876 
19.709675 6.051534 83.073456 -5.912073 -2.019087 -111.442459 -2.375290 -2.826180 6.641231 -1.015262 -1.290015 2.911131 -1.015263 -1.290015 2.911132 -0.755289 -0.972376 2.181121 4.996432 -11.718157 -21.898288 0.549474 12.861163 -39.657479 -0.378446 4.000730 -11.330163 67.992621 35.465822 80.214076 57.251923 27.133611 72.507471 31.565538 18.258807 0.533633 -3.543165 -10.293479 -26.725765 -51.002792 -0.791247 -52.219118 -21.993766 -35.267514 -69.943487 -31.957550 -22.708733 23.249826 0.606684 -10.749721 -7.176291 1.637170 -0.819392 -2.638365 -0.685070 5.631003 1.274725 -0.173023 -0.024048 -0.018084 1.599159 -9.136816 -0.921016 0.182955 -0.363948 -4.464156 -3.364934 3.000275 1.517959 -0.009808 -0.015525 0.022894 
19.682266 6.025472 83.069435 -5.949689 -2.041611 -111.442890 -2.414381 -2.844248 6.658899 -1.032270 -1.298462 2.919156 -1.032271 -1.298462 2.919155 -0.767987 -0.978807 2.187084 5.075971 -11.840690 -22.003589 0.695534 12.642281 -39.798047 -0.332016 4.012510 -11.229560 69.073963 35.607351 81.028966 57.591909 28.606091 72.348178 31.329005 18.882630 1.189037 -3.500569 -10.471471 -26.711227 -51.819508 -1.060302 -52.268023 -22.894728 -33.911934 -69.992507 -31.746268 -20.743578 21.183154 0.619070 -10.746659 -7.214673 1.666787 -0.897249 -2.595030 -0.701250 5.666772 1.263700 -0.159435 -0.021080 -0.017717 1.623786 -9.122986 -1.001468 0.192975 -0.466783 -4.450242 -3.349198 3.063108 1.575035 -0.035382 -0.030411 0.022915 
19.657103 6.005084 83.064903 -6.000968 -2.074254 -111.444467 -2.449705 -2.869979 6.676433 -1.046714 -1.310262 2.927453 -1.046714 -1.310262 2.927450 -0.778746 -0.987740 2.193256 5.160516 -11.979848 -22.107849 0.856131 12.395203 -39.931332 -0.282428 3.953939 -11.098293 70.100724 35.791878 81.776585 57.809471 29.957254 72.197729 31.132515 19.574441 2.060421 -3.464566 -10.662211 -26.666879 -52.778706 -1.336401 -52.284849 -24.009107 -32.546862 -69.667274 -31.273240 -18.253356 18.820547 0.629601 -10.749694 -7.284809 1.699228 -0.997466 -2.527198 -0.722619 5.715023 1.257471 -0.142366 -0.020351 -0.016547 1.648166 -9.112581 -1.088375 0.206980 -0.600871 -4.449822 -3.318644 3.145181 1.616182 -0.065712 -0.043177 0.021433 
19.632845 5.988687 83.059486 -6.071344 -2.116125 -111.447882 -2.482216 -2.897506 6.694621 -1.060257 -1.322909 2.935840 -1.060258 -1.322909 2.935839 -0.788824 -0.997305 2.199495 5.246319 -12.132916 -22.212468 1.022983 12.123489 -40.062212 -0.218360 3.784627 -10.959439 71.196075 35.997972 82.591720 57.973853 31.265563 72.036776 31.218148 20.273627 2.920826 -3.487904 -10.829047 -26.614003 -53.760713 -1.677147 -52.215577 -25.408135 -31.163131 -68.927503 -30.416745 -15.460785 16.231086 0.638397 -10.761644 -7.345455 1.729072 -1.122678 -2.463997 -0.747991 5.777179 1.253885 -0.122078 -0.020993 -0.014559 1.661248 -9.104458 -1.174138 0.229597 -0.774334 -4.452034 -3.274605 3.250556 1.678819 -0.096854 -0.056202 0.019988 
19.609053 5.979294 83.052986 -6.153431 -2.163838 -111.447944 -2.504986 -2.906553 6.710389 -1.069954 -1.327397 2.943672 -1.069953 -1.327397 2.943671 -0.796057 -1.000732 2.205340 5.318997 -12.305113 -22.320742 1.169880 11.812927 -40.201705 -0.160169 3.620988 -10.861085 72.287724 36.090030 83.334380 58.226864 32.539206 71.926939 31.405237 20.820717 3.527873 -3.521619 -11.056213 -26.557638 -54.659101 -2.092827 -52.090062 -26.939939 -29.740566 -68.046709 -29.311426 -12.736160 13.563479 0.643421 -10.771730 -7.400913 1.760799 -1.276332 -2.410251 -0.775889 5.855060 1.240247 -0.101915 -0.023694 -0.012766 1.675109 -9.088935 -1.261043 0.250326 -0.990703 -4.457436 -3.217092 3.382365 1.713558 -0.129478 -0.070447 0.017878 
19.586910 5.973024 83.045448 -6.244838 -2.218279 -111.441592 -2.511585 -2.911944 6.717686 -1.072658 -1.329437 2.947688 -1.072658 -1.329437 2.947686 -0.798066 -1.002282 2.208338 5.371192 -12.482115 -22.428905 1.280481 11.487941 -40.348578 -0.113388 3.513089 -10.767044 73.332770 36.137756 83.987735 58.464063 33.764145 71.768267 31.497199 21.253051 4.024564 -3.577929 -11.286329 -26.481525 -55.433423 -2.561732 -51.860687 -28.445397 -28.307634 -67.247276 -28.302064 -10.284422 10.932503 0.647732 -10.789804 -7.473495 1.793579 -1.440539 -2.339454 -0.809144 5.940253 1.223163 -0.079665 -0.026798 -0.012420 1.677678 -9.067905 -1.341517 0.279389 -1.239699 -4.477485 -3.142179 3.535986 1.798893 -0.163409 -0.086767 0.017113 
19.567278 5.970953 83.036942 -6.333438 -2.273310 -111.419503 -2.505136 -2.928617 6.718544 -1.069272 -1.335841 2.949527 -1.069272 -1.335841 2.949523 -0.795493 -1.007073 2.209713 5.410029 -12.646275 -22.541211 1.361452 11.181527 -40.511437 -0.074701 3.442222 -10.674518 74.375774 36.202820 84.613271 58.642003 34.895156 71.530263 31.305878 21.745149 4.563870 -3.640733 -11.479347 -26.417811 -56.145548 -3.072557 -51.554886 -29.834150 -26.871643 -66.509411 -27.465282 -7.841711 8.471212 0.650015 -10.800757 -7.561791 1.829689 -1.621737 -2.265884 -0.846151 6.036481 1.219476 -0.056992 -0.029325 -0.012007 1.684990 -9.031664 -1.407904 0.304588 -1.515155 -4.531158 -3.047823 3.705501 1.886089 -0.202298 -0.101698 0.015884 
19.550076 5.971104 83.028343 -6.422262 -2.333117 -111.389198 -2.490314 -2.942145 6.714113 -1.062240 -1.340996 2.947953 -1.062239 -1.340996 2.947955 -0.790196 -1.010902 2.208541 5.439791 -12.811750 -22.653183 1.426462 10.870286 -40.677147 -0.027046 3.289011 -10.566443 75.408949 36.290062 85.243145 58.831534 35.941599 71.294594 30.905404 22.419396 5.246512 -3.701453 -11.648148 -26.347784 -56.858781 -3.638001 -51.193699 -31.087060 -25.400031 -65.777099 -26.764610 -5.028652 6.185262 0.654349 -10.800792 -7.616994 1.868119 -1.831164 -2.194129 -0.889738 6.143423 1.166571 -0.036187 -0.027243 -0.012647 1.692789 -8.988880 -1.443747 0.326494 -1.806303 -4.617994 -2.931839 3.880151 1.973499 -0.242865 -0.113174 0.016670 
